<?xml version="1.0" encoding="UTF-8"?>
<svg width="1139px" height="1139px" viewBox="0 0 1139 1139" version="1.1" xmlns="http://www.w3.org/2000/svg" xmlns:xlink="http://www.w3.org/1999/xlink">
    <!-- Generator: Sketch 58 (84663) - https://sketch.com -->
    <title>lemoney_symbol_svg</title>
    <desc>Created with Sketch.</desc>
    <g id="Page-1" stroke="none" stroke-width="1" fill="none" fill-rule="evenodd">
        <g id="lemoney_symbol" fill="#FFFFFF" fill-rule="nonzero">
            <path d="M225.875123,115.190979 C407.964946,-22.5574442 645.964005,-33.923998 835.430248,65.9003924 C835.524969,66.1253554 835.797293,66.1253554 835.951215,66.2200767 C836.602424,66.6581626 837.07603,66.8712855 837.620678,67.1909698 C846.65472,72.0691158 855.440119,77.113024 864.213677,82.3226945 C950.433724,128.037553 1014.91524,125.906324 1055.65723,126.024726 C1100.67352,126.131287 1119.38097,153.316295 1119.38097,153.316295 C1119.38097,153.316295 1140.43277,178.79632 1128.33213,222.237867 C1116.14861,265.478132 1108.49986,361.478151 1125.37209,446.549701 C1125.37209,446.750984 1125.31289,446.916746 1125.31289,447.070668 C1171.46583,657.517675 1095.70065,885.156595 912.651773,1023.54439 C720.379412,1168.88235 465.697567,1173.51186 271.814944,1054.77873 C184.091197,1007.61937 118.662472,1009.6914 77.5179157,1009.58484 C32.4779464,1009.52564 13.7468131,982.352469 13.7468131,982.352469 L13.7405553,982.34484 C13.3293291,981.84155 -7.17202671,956.462302 4.8193323,913.513778 C16.3398081,872.321861 27.9668454,780.702702 14.8124275,698.674072 C-34.6320814,486.36816 40.7068578,255.117992 225.875123,115.190979 Z M929.86664,300.038303 C783.901146,106.854249 509.067348,68.7170934 316.025377,214.753629 C122.900524,360.671763 84.7160076,635.588442 230.693342,828.654093 C376.670677,1021.68422 651.539995,1059.92794 844.712208,913.891406 C1037.68314,767.961432 1075.92686,493.056593 929.86664,300.038303 Z" id="Combined-Shape"></path>
        </g>
    </g>
</svg>