<?xml version="1.0" encoding="UTF-8"?>
<svg width="1719px" height="398px" viewBox="0 0 1719 398" version="1.1" xmlns="http://www.w3.org/2000/svg" xmlns:xlink="http://www.w3.org/1999/xlink">
    <!-- Generator: Sketch 58 (84663) - https://sketch.com -->
    <title>logoeps_svg</title>
    <desc>Created with Sketch.</desc>
    <defs>
        <path d="M0.06,31.3307051 C0.470482307,21.495741 2.98745608,13.9406508 7.62,8.673 C12.701,2.889 19.555,0 28.188,0 C36.817,0 43.776,2.855 49.066,8.566 C54.355,14.28 57,22.853 57,34.271 L57,278.729 C57,290.154 54.322,298.724 48.961,304.434 C43.601,310.145 36.675,313 28.188,313 C19.836,313 13.048,310.041 7.83,304.124 C3.06777901,298.723957 0.477019266,291.20241 0.06,281.561638 L0.06,31.3307051 L0.06,31.3307051 Z" id="path-1"></path>
        <path d="M57.521,97.007 L159.573,97.007 C158.198,77.702 153.008,63.259 144.008,53.675 C135.005,44.091 123.15,39.299 108.444,39.299 C94.424,39.299 82.913,44.161 73.909,53.882 C64.906,63.603 59.443,77.975 57.521,97.007 Z M167.614,129.063 L57.521,129.063 C57.658,141.889 60.232,153.198 65.252,162.985 C70.269,172.78 76.934,180.155 85.251,185.121 C93.565,190.08 102.738,192.563 112.774,192.563 C119.506,192.563 125.658,191.771 131.224,190.187 C136.793,188.603 142.186,186.12 147.409,182.738 C152.632,179.363 157.441,175.741 161.842,171.877 C166.238,168.022 171.941,162.778 178.952,156.158 C181.84,153.679 185.964,152.435 191.323,152.435 C197.096,152.435 201.765,154.023 205.343,157.198 C208.914,160.369 210.703,164.847 210.703,170.638 C210.703,175.741 208.707,181.706 204.724,188.529 C200.736,195.357 194.724,201.91 186.683,208.179 C178.643,214.455 168.544,219.661 156.379,223.798 C144.215,227.935 130.224,230 114.423,230 C78.273,230 50.167,219.661 30.102,198.976 C10.033,178.294 0,150.234 0,114.795 C0,98.113 2.475,82.631 7.421,68.358 C12.371,54.085 19.586,41.852 29.069,31.646 C38.552,21.444 50.233,13.618 64.12,8.171 C78,2.724 93.395,0 110.299,0 C132.29,0 151.153,4.655 166.891,13.962 C182.626,23.268 194.414,35.298 202.249,50.056 C210.083,64.809 214,79.837 214,95.145 C214,109.348 209.946,118.551 201.836,122.758 C193.725,126.965 182.32,129.063 167.614,129.063 Z" id="path-3"></path>
        <path d="M190.948,119.144 L190.948,194.36 C190.948,206.242 188.26,215.153 182.888,221.092 C177.516,227.031 170.418,230 161.604,230 C153.059,230 146.135,227.031 140.833,221.092 C135.527,215.153 132.876,206.242 132.876,194.36 L132.876,104.227 C132.876,90.003 132.392,78.945 131.431,71.072 C130.466,63.198 127.848,56.744 123.578,51.702 C119.308,46.657 112.553,44.14 103.325,44.14 C84.861,44.14 72.705,50.49 66.852,63.198 C60.996,75.909 58.068,94.144 58.068,117.903 L58.068,194.36 C58.068,206.104 55.413,214.979 50.112,220.988 C44.806,226.997 37.818,230 29.138,230 C20.593,230 13.602,226.997 8.163,220.988 C2.717,214.979 0,206.104 0,194.36 L0,32.533 C0,21.901 2.444,13.816 7.335,8.293 C12.223,2.765 18.663,0 26.657,0 C34.369,0 40.813,2.595 45.978,7.774 C51.147,12.952 53.727,20.1 53.727,29.219 L53.727,34.605 C63.51,22.865 73.98,14.231 85.139,8.704 C96.3,3.181 108.697,0.419 122.336,0.419 C136.526,0.419 148.719,3.247 158.916,8.912 C169.109,14.576 177.516,23.143 184.127,34.605 C193.636,22.999 203.825,14.402 214.714,8.808 C225.594,3.214 237.651,0.419 250.876,0.419 C266.304,0.419 279.603,3.455 290.761,9.535 C301.922,15.614 310.256,24.318 315.765,35.643 C320.586,45.864 323,61.956 323,83.92 L323,194.36 C323,206.242 320.312,215.153 314.94,221.092 C309.565,227.031 302.47,230 293.656,230 C285.111,230 278.12,226.997 272.678,220.988 C267.236,214.979 264.514,206.104 264.514,194.36 L264.514,99.256 C264.514,87.097 264.001,77.362 262.965,70.037 C261.934,62.716 259.142,56.57 254.595,51.595 C250.051,46.624 243.16,44.14 233.931,44.14 C226.493,44.14 219.431,46.345 212.75,50.768 C206.066,55.191 200.868,61.129 197.148,68.588 C193.015,78.119 190.948,94.971 190.948,119.144 Z" id="path-5"></path>
        <path d="M53.149,31.287 L53.149,38.127 C63.114,25.004 74.011,15.369 85.848,9.219 C97.678,3.077 111.275,0 126.641,0 C141.59,0 154.942,3.247 166.708,9.738 C178.467,16.229 187.259,25.419 193.075,37.297 C196.812,44.203 199.229,51.665 200.34,59.672 C201.447,67.687 202,77.907 202,90.341 L202,195.602 C202,206.931 199.404,215.491 194.211,221.296 C189.023,227.097 182.278,230 173.973,230 C165.531,230 158.679,227.027 153.419,221.088 C148.16,215.153 145.531,206.657 145.531,195.602 L145.531,101.325 C145.531,82.675 142.938,68.414 137.746,58.538 C132.557,48.662 122.209,43.721 106.71,43.721 C96.604,43.721 87.404,46.724 79.1,52.733 C70.795,58.742 64.704,66.997 60.83,77.496 C58.059,85.922 56.677,101.669 56.677,124.738 L56.677,195.602 C56.677,207.068 54.011,215.669 48.685,221.4 C43.355,227.131 36.469,230 28.027,230 C19.863,230 13.148,227.027 7.889,221.088 C2.63,215.153 0,206.657 0,195.602 L0,32.118 C0,21.341 2.355,13.293 7.064,7.978 C11.763,2.658 18.203,0 26.37,0 C31.351,0 35.849,1.175 39.864,3.522 C43.875,5.872 47.091,9.397 49.513,14.087 C51.938,18.787 53.149,24.522 53.149,31.287 Z" id="path-7"></path>
        <path d="M57.521,97.007 L159.571,97.007 C158.198,77.702 153.009,63.259 144.006,53.675 C135.002,44.091 123.148,39.299 108.446,39.299 C94.426,39.299 82.911,44.161 73.911,53.882 C64.908,63.603 59.442,77.975 57.521,97.007 Z M167.615,129.063 L57.521,129.063 C57.657,141.889 60.231,153.198 65.255,162.985 C70.267,172.78 76.936,180.155 85.253,185.121 C93.563,190.08 102.74,192.563 112.772,192.563 C119.507,192.563 125.66,191.771 131.222,190.187 C136.791,188.603 142.184,186.12 147.41,182.738 C152.629,179.363 157.439,175.741 161.839,171.877 C166.239,168.022 171.941,162.778 178.953,156.158 C181.837,153.679 185.961,152.435 191.32,152.435 C197.096,152.435 201.762,154.023 205.34,157.198 C208.914,160.369 210.699,164.847 210.699,170.638 C210.699,175.741 208.707,181.706 204.72,188.529 C200.733,195.357 194.721,201.91 186.684,208.179 C178.643,214.455 168.541,219.661 156.376,223.798 C144.212,227.935 130.226,230 114.425,230 C78.275,230 50.169,219.661 30.101,198.976 C10.032,178.294 0,150.234 0,114.795 C0,98.113 2.475,82.631 7.425,68.358 C12.375,54.085 19.589,41.852 29.072,31.646 C38.555,21.444 50.232,13.618 64.119,8.171 C78.002,2.724 93.397,0 110.301,0 C132.288,0 151.154,4.655 166.888,13.962 C182.627,23.268 194.411,35.298 202.245,50.056 C210.079,64.809 214,79.837 214,95.145 C214,109.348 209.943,118.551 201.836,122.758 C193.725,126.965 182.317,129.063 167.615,129.063 Z" id="path-9"></path>
        <path d="M77.272,236.351 L82.45,223.751 L12.842,48.964 C8.562,38.91 6.423,31.606 6.423,27.064 C6.423,22.244 7.665,17.768 10.151,13.635 C12.638,9.503 16.056,6.195 20.407,3.718 C24.758,1.242 29.28,0 33.975,0 C42.125,0 48.271,2.584 52.414,7.747 C56.554,12.911 60.212,20.318 63.392,29.958 L111.248,168.796 L156.616,39.668 C160.204,29.2 163.45,21.006 166.352,15.081 C169.25,9.159 172.323,5.164 175.57,3.101 C178.813,1.031 183.408,0 189.346,0 C193.627,0 197.737,1.135 201.673,3.412 C205.609,5.681 208.644,8.749 210.787,12.604 C212.929,16.459 214,20.521 214,24.794 C213.444,27.411 212.551,31.13 211.306,35.946 C210.064,40.769 208.541,45.659 206.75,50.616 L133,243.171 C126.643,260.111 120.432,273.399 114.353,283.042 C108.275,292.682 100.229,300.085 90.218,305.253 C80.204,310.416 66.706,313 49.72,313 C33.149,313 20.714,311.207 12.431,307.629 C4.144,304.044 0,297.505 0,288.002 C0,281.527 1.968,276.537 5.904,273.022 C9.84,269.51 15.674,267.755 23.409,267.755 C26.444,267.755 29.417,268.165 32.319,268.993 C35.906,269.821 39.016,270.235 41.64,270.235 C48.13,270.235 53.244,269.266 56.969,267.341 C60.698,265.411 64.048,262.073 67.017,257.32 C69.986,252.57 73.403,245.577 77.272,236.351 Z" id="path-11"></path>
    </defs>
    <g id="logoeps" stroke="none" stroke-width="1" fill="none" fill-rule="evenodd">
        <g id="Group-3">
            <mask id="mask-2" fill="white">
                <use xlink:href="#path-1"></use>
            </mask>
            <g id="Clip-2"></g>
            <polygon id="Fill-1" fill="#FFFFFF" mask="url(#mask-2)" points="0.06 313.04 57.06 313.04 57.06 -0.04 0.06 -0.04"></polygon>
        </g>
        <g id="Group-6" transform="translate(79.000000, 83.000000)">
            <mask id="mask-4" fill="white">
                <use xlink:href="#path-3"></use>
            </mask>
            <g id="Clip-5"></g>
            <polygon id="Fill-4" fill="#FFFFFF" mask="url(#mask-4)" points="-0.1 230.04 214.1 230.04 214.1 0 -0.1 0"></polygon>
        </g>
        <g id="Group-9" transform="translate(313.000000, 83.000000)">
            <mask id="mask-6" fill="white">
                <use xlink:href="#path-5"></use>
            </mask>
            <g id="Clip-8"></g>
            <polygon id="Fill-7" fill="#FFFFFF" mask="url(#mask-6)" points="-0.1 230.04 323.06 230.04 323.06 0 -0.1 0"></polygon>
        </g>
        <g id="Group-12" transform="translate(1073.000000, 83.000000)">
            <mask id="mask-8" fill="white">
                <use xlink:href="#path-7"></use>
            </mask>
            <g id="Clip-11"></g>
            <polygon id="Fill-10" fill="#FFFFFF" mask="url(#mask-8)" points="-0.02 230.04 202.06 230.04 202.06 0 -0.02 0"></polygon>
        </g>
        <g id="Group-15" transform="translate(1297.000000, 83.000000)">
            <mask id="mask-10" fill="white">
                <use xlink:href="#path-9"></use>
            </mask>
            <g id="Clip-14"></g>
            <polygon id="Fill-13" fill="#FFFFFF" mask="url(#mask-10)" points="-0.1 230.04 214.1 230.04 214.1 0 -0.1 0"></polygon>
        </g>
        <g id="Group-18" transform="translate(1505.000000, 85.000000)">
            <mask id="mask-12" fill="white">
                <use xlink:href="#path-11"></use>
            </mask>
            <g id="Clip-17"></g>
            <polygon id="Fill-16" fill="#FFFFFF" mask="url(#mask-12)" points="-0.02 313 214.06 313 214.06 -0.08 -0.02 -0.08"></polygon>
        </g>
        <g id="Group-21" transform="translate(676.000000, 22.000000)" fill="#FFFFFF">
            <path d="M261.229,20.604 C261.258,20.674 261.343,20.674 261.391,20.704 C261.595,20.841 261.743,20.907 261.913,21.007 C264.738,22.533 267.485,24.11 270.229,25.738 C297.189,40.031 317.351,39.365 330.091,39.402 C344.167,39.435 350.016,47.935 350.016,47.935 C350.016,47.935 356.599,55.901 352.815,69.483 C349.005,83.002 346.614,113.017 351.89,139.615 C351.89,139.678 351.871,139.73 351.871,139.778 C366.302,205.574 342.612,276.746 285.375,320.013 C225.254,365.454 145.618,366.901 84.993,329.779 C57.563,315.034 37.104,315.682 24.239,315.649 C10.156,315.63 4.299,307.135 4.299,307.135 C4.299,307.135 -2.28,299.176 1.507,285.612 C5.109,272.733 8.745,244.088 4.632,218.442 C-10.829,152.064 12.729,79.763 70.628,36.015 C127.566,-7.053 201.985,-10.606 261.229,20.604 Z M286.362,95.2 C240.904,35.038 155.314,23.161 95.196,68.64 C35.052,114.083 23.16,199.698 68.621,259.824 C114.082,319.938 199.684,331.848 259.842,286.369 C319.938,240.923 331.848,155.31 286.362,95.2 Z" id="Combined-Shape"></path>
        </g>
    </g>
</svg>