<?xml version="1.0" encoding="UTF-8"?>
<svg width="1139px" height="1139px" viewBox="0 0 1139 1139" version="1.1" xmlns="http://www.w3.org/2000/svg" xmlns:xlink="http://www.w3.org/1999/xlink">
    <!-- Generator: Sketch 54.1 (76490) - https://sketchapp.com -->
    <title>Group 8Svg</title>
    <desc>Created with Sketch.</desc>
    <g id="Page-1" stroke="none" stroke-width="1" fill="none" fill-rule="evenodd">
        <g id="Artboard" transform="translate(-278.000000, -2344.000000)">
            <g id="Group-8" transform="translate(278.000000, 2344.000000)">
                <path d="M1125.31289,447.070668 C1125.31289,446.916746 1125.37209,446.750984 1125.37209,446.549701 C1108.49986,361.478151 1116.14861,265.478132 1128.33213,222.237867 C1140.43277,178.79632 1119.38097,153.316295 1119.38097,153.316295 C1119.38097,153.316295 1100.67352,126.131287 1055.65723,126.024726 C1014.91524,125.906324 950.433724,128.037553 864.213677,82.3226945 C855.440119,77.113024 846.65472,72.0691158 837.620678,67.1909698 C837.07603,66.8712855 836.602424,66.6581626 835.951215,66.2200767 C835.797293,66.1253554 835.524969,66.1253554 835.430248,65.9003924 C645.964005,-33.923998 407.964946,-22.5574442 225.875123,115.190979 C40.7068578,255.117992 -34.6320814,486.36816 14.8124275,698.674072 C27.9668454,780.702702 16.3398081,872.321861 4.8193323,913.513778 C-7.29315155,956.896125 13.7468131,982.352469 13.7468131,982.352469 C13.7468131,982.352469 32.4779464,1009.52564 77.5179157,1009.58484 C118.662472,1009.6914 184.091197,1007.61937 271.814944,1054.77873 C465.697567,1173.51186 720.379412,1168.88235 912.651773,1023.54439 C1095.70065,885.156595 1171.46583,657.517675 1125.31289,447.070668 Z" id="Fill-14" fill="#11E374"></path>
                <path d="M844.712208,913.891406 C651.539995,1059.92794 376.670677,1021.68422 230.693342,828.654093 C84.7160076,635.588442 122.900524,360.671763 316.025377,214.753629 C509.067348,68.7170934 783.901146,106.854249 929.86664,300.038303 C1075.92686,493.056593 1037.68314,767.961432 844.712208,913.891406" id="Fill-16" fill="#FFF100"></path>
            </g>
        </g>
    </g>
</svg>